<svg width="30" height="30" viewBox="0 0 30 30" fill="none" xmlns="http://www.w3.org/2000/svg">
<circle cx="14.6082" cy="14.6082" r="11.5" fill="url(#paint0_linear_39_370)"/>
<circle opacity="0.5" cx="14.6081" cy="14.6081" r="14.6081" fill="url(#paint1_linear_39_370)"/>
<path d="M21.6666 12.9866V18.9999C21.6666 19.7333 21.0666 20.3333 20.3333 20.3333H9.66665C8.93331 20.3333 8.33331 19.7333 8.33331 18.9999V10.9999C8.33331 10.2666 8.93331 9.66659 9.66665 9.66659H16.4C16.36 9.87992 16.3333 10.1066 16.3333 10.3333C16.3333 11.3199 16.7666 12.1933 17.4466 12.8066L15 14.3333L9.66665 10.9999V12.3333L15 15.6666L18.5333 13.4533C18.8933 13.5866 19.2666 13.6666 19.6666 13.6666C20.42 13.6666 21.1066 13.4066 21.6666 12.9866ZM17.6666 10.3333C17.6666 11.4399 18.56 12.3333 19.6666 12.3333C20.7733 12.3333 21.6666 11.4399 21.6666 10.3333C21.6666 9.22659 20.7733 8.33325 19.6666 8.33325C18.56 8.33325 17.6666 9.22659 17.6666 10.3333Z" fill="white"/>
<defs>
<linearGradient id="paint0_linear_39_370" x1="26.1082" y1="14.6082" x2="3.10815" y2="14.6082" gradientUnits="userSpaceOnUse">
<stop stop-color="#00B2FF"/>
<stop offset="1" stop-color="#006AFF"/>
</linearGradient>
<linearGradient id="paint1_linear_39_370" x1="29.2162" y1="14.6081" x2="-2.49682e-07" y2="14.6081" gradientUnits="userSpaceOnUse">
<stop stop-color="#00B2FF"/>
<stop offset="1" stop-color="#006AFF"/>
</linearGradient>
</defs>
</svg>
