<svg width="29" height="39" viewBox="0 0 29 39" fill="none" xmlns="http://www.w3.org/2000/svg">
<path d="M15.0384 25.4674C15.0384 24.9993 14.8556 24.5503 14.5302 24.2193C14.2048 23.8882 13.7634 23.7023 13.3032 23.7023H1.7352C1.275 23.7023 0.833643 23.8882 0.508229 24.2193C0.182816 24.5503 0 24.9993 0 25.4674C0 25.9355 0.182816 26.3845 0.508229 26.7155C0.833643 27.0465 1.275 27.2325 1.7352 27.2325H5.61396C7.7399 29.7671 10.719 31.4036 13.9684 31.8218V35.4698H5.29237C4.83216 35.4698 4.39081 35.6557 4.06539 35.9867C3.73998 36.3178 3.55717 36.7667 3.55717 37.2349C3.55717 37.703 3.73998 38.152 4.06539 38.483C4.39081 38.814 4.83216 39 5.29237 39H26.1148C26.575 39 27.0164 38.814 27.3418 38.483C27.6672 38.152 27.85 37.703 27.85 37.2349C27.85 36.7667 27.6672 36.3178 27.3418 35.9867C27.0164 35.6557 26.575 35.4698 26.1148 35.4698H17.4388V31.8218C19.7532 31.5109 21.9464 30.5858 23.7981 29.1397C25.6498 27.6935 27.0948 25.7771 27.9879 23.583C28.8811 21.3889 29.1909 18.9943 28.8862 16.6399C28.5816 14.2854 27.6733 12.054 26.2525 10.1697L28.3775 8.0021C28.7028 7.67109 28.8856 7.2222 28.8856 6.75416C28.8856 6.28611 28.7028 5.83723 28.3775 5.50622L27.1501 4.26122L27.5597 3.84582C27.885 3.51469 28.0677 3.06565 28.0676 2.59747C28.0675 2.12929 27.8846 1.68033 27.5591 1.34935C27.2336 1.01838 26.7921 0.832501 26.3319 0.832611C25.8716 0.832722 25.4303 1.01881 25.1049 1.34994L24.6966 1.76533L23.4692 0.516804C23.1438 0.185894 22.7025 0 22.2424 0C21.7823 0 21.341 0.185894 21.0156 0.516804L9.56328 12.1666C9.23798 12.4976 9.05524 12.9465 9.05524 13.4146C9.05524 13.8826 9.23798 14.3315 9.56328 14.6625L14.4716 19.6519C14.797 19.9828 15.2383 20.1687 15.6984 20.1687C16.1585 20.1687 16.5998 19.9828 16.9252 19.6519L23.7688 12.6903C25.029 14.5355 25.6422 16.7584 25.5099 19.0012C25.3776 21.2439 24.5075 23.3762 23.0395 25.055C21.5715 26.7337 19.591 27.8613 17.4166 28.2563C15.2423 28.6513 13.0005 28.2907 11.0521 27.2325H13.3021C13.53 27.2327 13.7558 27.1871 13.9665 27.0985C14.1771 27.0099 14.3685 26.8799 14.5298 26.7159C14.691 26.552 14.819 26.3574 14.9062 26.1432C14.9935 25.9289 15.0384 25.6993 15.0384 25.4674Z" fill="url(#paint0_linear_38_60)"/>
<defs>
<linearGradient id="paint0_linear_38_60" x1="29" y1="19.5" x2="-2.47835e-07" y2="19.5" gradientUnits="userSpaceOnUse">
<stop stop-color="#00B2FF"/>
<stop offset="1" stop-color="#006AFF"/>
</linearGradient>
</defs>
</svg>
