<svg width="52" height="60" viewBox="0 0 52 60" fill="none" xmlns="http://www.w3.org/2000/svg">
<g clip-path="url(#clip0_38_130)">
<path d="M50.43 10.65C49.67 7.55995 47.22 4.59995 43.67 2.33995C41.1361 0.765558 38.2028 -0.0467376 35.22 -4.78199e-05C32.6288 0.0142263 30.0649 0.530404 27.67 1.51995L27.47 1.59995C27.3793 1.64594 27.2858 1.68602 27.19 1.71995L26.08 2.12995C25.7974 2.27019 25.4931 2.36148 25.18 2.39995C24.6627 2.32659 24.1558 2.19232 23.67 1.99995C20.5171 0.988792 17.2392 0.420035 13.93 0.309952C12.4354 0.285853 10.9476 0.51579 9.53 0.989952C3.8 2.99995 -1.28 9.73995 0.290001 20.18C0.480001 21.41 0.660002 22.64 0.840002 23.88C1.27 26.88 1.71 29.88 2.23 32.88C2.43102 34.0596 3.04362 35.1299 3.95901 35.9006C4.8744 36.6714 6.03334 37.0928 7.23 37.09C7.67282 37.0898 8.11355 37.0292 8.54 36.91C11.056 36.2387 13.6204 35.764 16.21 35.49L17.53 41.56L35.93 38.22L36.53 35.4599C38.753 35.6924 40.9579 36.0732 43.13 36.5999C43.5426 36.6997 43.9655 36.75 44.39 36.75C45.5353 36.7614 46.6498 36.3794 47.5472 35.6677C48.4445 34.956 49.0704 33.9578 49.32 32.84C50.98 25.47 52.29 17.65 50.43 10.65Z" fill="url(#paint0_linear_38_130)"/>
<path d="M18.79 47.49L34.56 44.33L35.43 40.36L17.93 43.54L18.79 47.49Z" fill="url(#paint1_linear_38_130)"/>
<path d="M20.14 53.67L33.02 51.39L34.1 46.47L19.22 49.44L20.14 53.67Z" fill="url(#paint2_linear_38_130)"/>
<path d="M21.53 60H31.14L32.56 53.51L20.57 55.62L21.53 60Z" fill="url(#paint3_linear_38_130)"/>
</g>
<defs>
<linearGradient id="paint0_linear_38_130" x1="51.339" y1="20.779" x2="0.00125078" y2="20.779" gradientUnits="userSpaceOnUse">
<stop stop-color="#00B2FF"/>
<stop offset="1" stop-color="#006AFF"/>
</linearGradient>
<linearGradient id="paint1_linear_38_130" x1="35.43" y1="43.925" x2="17.93" y2="43.925" gradientUnits="userSpaceOnUse">
<stop stop-color="#00B2FF"/>
<stop offset="1" stop-color="#006AFF"/>
</linearGradient>
<linearGradient id="paint2_linear_38_130" x1="34.1" y1="50.07" x2="19.22" y2="50.07" gradientUnits="userSpaceOnUse">
<stop stop-color="#00B2FF"/>
<stop offset="1" stop-color="#006AFF"/>
</linearGradient>
<linearGradient id="paint3_linear_38_130" x1="32.56" y1="56.755" x2="20.57" y2="56.755" gradientUnits="userSpaceOnUse">
<stop stop-color="#00B2FF"/>
<stop offset="1" stop-color="#006AFF"/>
</linearGradient>
<clipPath id="clip0_38_130">
<rect width="51.33" height="60" fill="white"/>
</clipPath>
</defs>
</svg>
