<svg width="60" height="60" viewBox="0 0 60 60" fill="none" xmlns="http://www.w3.org/2000/svg">
<path d="M15.123 12.2183C12.331 12.2183 10.0602 14.489 10.0602 17.28C10.0602 20.0732 12.331 22.3445 15.123 22.3445C17.9143 22.3445 20.1853 20.0732 20.1853 17.28C20.1853 14.489 17.9144 12.2183 15.123 12.2183Z" fill="url(#paint0_linear_38_125)"/>
<path d="M54.8949 13.1316H38.8047C36.1508 13.1316 33.9996 15.284 33.9996 17.9365V22.0094H30.2454V15.1223C30.2455 6.77039 23.475 0 15.123 0C6.77027 0 0 6.77039 0 15.1223V44.8779C0 53.2295 6.77027 60 15.1221 60C23.4751 60 30.2455 53.2296 30.2455 44.8779V27.4748H33.9997V31.5491C33.9997 34.202 36.1509 36.3543 38.8048 36.3543H54.8951C57.5487 36.3543 59.6999 34.202 59.6999 31.5491V17.9365C59.6999 15.284 57.5487 13.1316 54.8949 13.1316ZM15.123 26.3332C10.1321 26.3332 6.07122 22.2724 6.07122 17.28C6.07122 12.2901 10.1321 8.22907 15.123 8.22907C20.1142 8.22907 24.1742 12.2901 24.1742 17.28C24.1742 22.2724 20.1143 26.3332 15.123 26.3332Z" fill="url(#paint1_linear_38_125)"/>
<defs>
<linearGradient id="paint0_linear_38_125" x1="59.6999" y1="30" x2="-5.10196e-07" y2="30" gradientUnits="userSpaceOnUse">
<stop stop-color="#00B2FF"/>
<stop offset="1" stop-color="#006AFF"/>
</linearGradient>
<linearGradient id="paint1_linear_38_125" x1="59.6999" y1="30" x2="-5.10196e-07" y2="30" gradientUnits="userSpaceOnUse">
<stop stop-color="#00B2FF"/>
<stop offset="1" stop-color="#006AFF"/>
</linearGradient>
</defs>
</svg>
