<svg width="55" height="42" viewBox="0 0 55 42" fill="none" xmlns="http://www.w3.org/2000/svg">
<path d="M55 17.3855C55 8.78198 51.4505 0 42.8606 0C35.868 0 34.5725 6.88993 27.5089 6.88993C20.4453 6.88993 19.1142 0 12.1394 0C3.60278 0 1.52588e-05 8.78198 1.52588e-05 17.3855C0.183069 21.2158 0.711727 25.0215 1.57953 28.7556C2.03965 32.3618 2.7093 35.9379 3.58502 39.4654C3.7236 40.0302 4.00732 40.5486 4.40779 40.9684C4.80827 41.3883 5.31144 41.6949 5.86685 41.8576C6.42226 42.0203 7.01045 42.0334 7.57245 41.8955C8.13446 41.7575 8.65055 41.4735 9.06904 41.0718C14.0509 36.3369 20.6456 33.6988 27.5 33.6988C34.3545 33.6988 40.949 36.3369 45.9309 41.0718C46.3487 41.4743 46.8649 41.7586 47.4271 41.896C47.9893 42.0334 48.5776 42.0189 49.1325 41.854C49.6873 41.6891 50.189 41.3797 50.5867 40.9571C50.9844 40.5345 51.264 40.0138 51.3972 39.4475C52.2725 35.919 52.9479 32.3433 53.4204 28.7378C54.2801 25.0082 54.8087 21.2091 55 17.3855ZM45.9309 35.5563C40.949 30.8214 34.3545 28.1833 27.5 28.1833C20.6456 28.1833 14.0509 30.8214 9.06904 35.5563C8.66879 35.9272 8.18313 36.1923 7.65575 36.3276C7.12838 36.4629 6.57582 36.4642 6.0478 36.3315C5.51979 36.1987 5.0329 35.936 4.63088 35.567C4.22887 35.198 3.92435 34.7343 3.74475 34.2176C4.39516 34.7109 5.19911 34.9549 6.01227 34.9058C6.82543 34.8568 7.59456 34.5178 8.18166 33.9499C13.4195 28.9766 20.35 26.2062 27.5532 26.2062C34.7565 26.2062 41.687 28.9766 46.9248 33.9499C47.509 34.5165 48.2752 34.8548 49.0853 34.9038C49.8954 34.9529 50.6964 34.7096 51.344 34.2176C51.1749 34.7541 50.8714 35.2379 50.4629 35.6226C50.0543 36.0073 49.5543 36.2799 49.0109 36.4143C48.4674 36.5487 47.8988 36.5404 47.3594 36.3901C46.8201 36.2399 46.3282 35.9528 45.9309 35.5563Z" fill="url(#paint0_linear_38_92)"/>
<defs>
<linearGradient id="paint0_linear_38_92" x1="55" y1="21.0089" x2="1.19805e-05" y2="21.0089" gradientUnits="userSpaceOnUse">
<stop stop-color="#00B2FF"/>
<stop offset="1" stop-color="#006AFF"/>
</linearGradient>
</defs>
</svg>
