<svg width="59" height="60" viewBox="0 0 59 60" fill="none" xmlns="http://www.w3.org/2000/svg">
<path d="M45.2954 0C37.9243 0 36.5552 7.23298 29.0716 7.23298C21.588 7.23298 20.2188 0 12.8478 0C3.80745 0 0 9.21923 0 18.2511C0 26.4959 6.41453 54.6034 14.442 59.2879C11.1664 51.4674 9.75383 42.9937 10.3157 34.5347L3.95746 29.5878L5.12037 28.1074L10.4657 32.2861C10.7841 28.0338 11.5448 23.8263 12.7352 19.7314L14.517 20.3123C12.4828 27.4573 11.6961 34.8991 12.1913 42.3111L18.3057 38.5634L19.2998 40.1562L12.3789 44.4472C12.9392 49.8399 14.4105 55.0987 16.7303 60C20.4814 59.6065 21.4004 39.1068 29.0153 39.1068C36.105 39.1068 37.3992 56.8895 40.5502 59.7189C42.7797 54.9141 44.1932 49.772 44.7327 44.5034L37.8118 40.2124L38.8059 38.6196L44.939 42.3673C45.4632 34.9572 44.6888 27.5126 42.6508 20.3685L44.5264 19.7876C45.7184 23.883 46.4852 28.09 46.8146 32.3423L52.1413 28.1636L53.3042 29.644L46.9647 34.5909C47.5291 43.2375 46.0313 51.8945 42.5945 59.8501C51.1285 57.3392 58.1807 26.9457 58.1807 18.3073C58.1431 9.21924 54.3357 0 45.2954 0Z" fill="url(#paint0_linear_38_110)"/>
<defs>
<linearGradient id="paint0_linear_38_110" x1="58.1431" y1="29.9813" x2="0" y2="29.9813" gradientUnits="userSpaceOnUse">
<stop stop-color="#00B2FF"/>
<stop offset="1" stop-color="#006AFF"/>
</linearGradient>
</defs>
</svg>
