<svg width="55" height="60" viewBox="0 0 55 60" fill="none" xmlns="http://www.w3.org/2000/svg">
<path d="M53.4659 11.2931C52.5976 8.0118 50.0596 4.88002 46.3171 2.47553C43.7992 0.856628 40.6928 0 37.3342 0C34.6328 0 31.8573 0.556596 29.3033 1.61254L29.1156 1.69311C29.0117 1.73764 28.911 1.78323 28.8039 1.82033C28.311 1.99102 27.9325 2.13839 27.625 2.25713C27.2752 2.39389 27.0716 2.46811 26.9136 2.50945L29.7178 5.24685C33.2535 8.25989 33.2419 11.2326 33.2217 16.6322L33.2164 18.0231C33.2164 18.6094 32.7415 19.0833 32.1562 19.0833C31.571 19.0833 31.0961 18.6094 31.0961 18.0231L31.0992 16.6247C31.1194 11.398 31.1268 9.23525 28.2876 6.81274L22.9178 1.57331C20.4179 0.915998 17.5395 0.333958 14.7618 0.333958C13.0083 0.333958 11.4403 0.574619 10.1012 1.04852C4.02534 3.20175 -1.35827 10.3262 0.306217 21.3934C0.503411 22.7028 0.695305 24.0237 0.888258 25.35C2.27922 34.9086 3.71683 44.7927 7.41368 53.7174L7.53985 54.0227C8.45797 56.2576 9.99417 60 12.668 60H12.8832L13.0814 59.9162C15.5336 58.8783 16.4528 56.5215 17.1228 54.8019C17.5755 53.641 17.9784 52.4579 18.3675 51.315C18.8796 49.8116 19.38 48.3528 19.9758 46.9523C21.3074 49.6547 24.0745 54.1573 27.7278 54.1573C28.1615 54.1573 28.5961 54.0927 29.0202 53.9676C31.4088 53.2594 32.6068 50.7923 33.4825 48.9911L33.5536 48.8437C33.738 48.4652 33.9723 48.0263 34.2247 47.5503C34.477 47.0764 34.7526 46.5495 35.024 46.0077C35.2891 46.8633 35.5202 47.7422 35.7481 48.6136C36.0015 49.5816 36.2623 50.5824 36.5655 51.5175C37.9003 55.6289 39.6379 59.8314 42.4167 59.8314C43.7218 59.8314 44.8784 58.9154 45.9545 57.0283C48.0304 53.3908 48.9209 49.3367 49.7818 45.4161L50.0871 44.0379C50.4264 42.5218 50.8038 40.9591 51.1886 39.3604C53.3546 30.3594 55.81 20.1583 53.4659 11.2931ZM6.75425 21.4952C6.70018 21.5026 6.64717 21.5069 6.59522 21.5069C6.07997 21.5069 5.62728 21.1305 5.54882 20.6036C4.70068 14.9708 6.31745 8.01286 11.8718 6.0441C12.422 5.84691 13.0295 6.13634 13.2245 6.68869C13.4207 7.24105 13.1313 7.84642 12.58 8.04149C8.15899 9.60844 6.92282 15.4872 7.6448 20.2887C7.73174 20.8686 7.33311 21.4072 6.75425 21.4952ZM17.7526 32.8657L15.1933 35.425V37.1064C15.1933 37.6927 14.7183 38.1666 14.1331 38.1666C13.5479 38.1666 13.0729 37.6927 13.0729 37.1064V35.425L10.5137 32.8657H8.83221C8.24699 32.8657 7.77203 32.3918 7.77203 31.8055C7.77203 31.2192 8.24699 30.7453 8.83221 30.7453H10.5137L13.0729 28.186V26.5046C13.0729 25.9183 13.5479 25.4444 14.1331 25.4444C14.7183 25.4444 15.1933 25.9183 15.1933 26.5046V28.186L17.7526 30.7453H19.434C20.0193 30.7453 20.4942 31.2192 20.4942 31.8055C20.4942 32.3918 20.0193 32.8657 19.434 32.8657H17.7526ZM48.059 13.7824H46.3775L43.8183 16.3417V18.0231C43.8183 18.6094 43.3433 19.0833 42.7581 19.0833C42.1728 19.0833 41.6979 18.6094 41.6979 18.0231V16.3417L39.1386 13.7824H37.4572C36.8719 13.7824 36.397 13.3085 36.397 12.7222C36.397 12.1359 36.8719 11.662 37.4572 11.662H39.1386L41.6979 9.10273V7.42128C41.6979 6.835 42.1728 6.3611 42.7581 6.3611C43.3433 6.3611 43.8183 6.835 43.8183 7.42128V9.10273L46.3775 11.662H48.059C48.6442 11.662 49.1192 12.1359 49.1192 12.7222C49.1192 13.3085 48.6442 13.7824 48.059 13.7824Z" fill="url(#paint0_linear_38_144)"/>
<defs>
<linearGradient id="paint0_linear_38_144" x1="54.4185" y1="30" x2="-4.65062e-07" y2="30" gradientUnits="userSpaceOnUse">
<stop stop-color="#00B2FF"/>
<stop offset="1" stop-color="#006AFF"/>
</linearGradient>
</defs>
</svg>
