<svg width="55" height="60" viewBox="0 0 55 60" fill="none" xmlns="http://www.w3.org/2000/svg">
<path d="M53.4659 11.2931C52.5987 8.01074 50.0595 4.87896 46.3182 2.47553C43.7981 0.856628 40.6928 0 37.3342 0C34.6328 0 31.8573 0.556596 29.3054 1.61254L29.1124 1.69417C29.0096 1.7387 28.91 1.78323 28.8029 1.82033C28.3099 1.99102 27.9314 2.13839 27.6229 2.25819C27.2667 2.39601 27.0621 2.47235 26.903 2.51157L29.7146 5.24473C33.2514 8.25883 33.2397 11.2316 33.2196 16.6311L33.2164 18.0231C33.2164 18.6094 32.7425 19.0833 32.1562 19.0833C31.57 19.0833 31.0961 18.6094 31.0961 18.0231L31.0992 16.6247C31.1204 11.398 31.1279 9.23525 28.2887 6.81274L22.8881 1.56483C20.3956 0.911757 17.5289 0.333958 14.7618 0.333958C13.0083 0.333958 11.4392 0.574619 10.1012 1.04852C4.02534 3.20175 -1.35827 10.3272 0.306217 21.3934C0.504472 22.7028 0.695304 24.0227 0.888258 25.349C2.28028 34.9076 3.71683 44.7917 7.41368 53.7174L7.54091 54.0259C8.45796 56.2597 9.99417 60 12.668 60H12.8832L13.0814 59.9162C15.5357 58.8773 16.4539 56.5215 17.1239 54.8019C17.5766 53.641 17.9795 52.4589 18.3686 51.316C19.3524 48.4292 20.2811 45.7024 21.9552 43.2544C23.7511 40.6262 26.0167 39.1208 28.1699 39.1208C29.1199 39.1208 30.0815 39.4059 31.025 39.9678C33.9458 41.7076 34.8618 45.2179 35.7481 48.6126C36.0005 49.5816 36.2623 50.5835 36.5655 51.5185C37.9014 55.6299 39.6401 59.8325 42.4167 59.8325C43.7207 59.8325 44.8784 58.9165 45.9545 57.0304C48.0325 53.3887 48.9241 49.3324 49.785 45.4098L50.0871 44.0389C50.4264 42.5229 50.8038 40.9591 51.1886 39.3604C53.3546 30.3583 55.811 20.1573 53.4659 11.2931ZM11.6618 37.1064C9.32307 37.1064 7.42111 35.2044 7.42111 32.8657C7.42111 30.5269 9.32307 28.6249 11.6618 28.6249C14.0006 28.6249 15.9026 30.5269 15.9026 32.8657C15.9026 35.2044 14.0006 37.1064 11.6618 37.1064ZM43.4673 20.1435C40.5444 20.1435 38.1664 17.7655 38.1664 14.8426C38.1664 11.9196 40.5444 9.54165 43.4673 9.54165C46.3903 9.54165 48.7682 11.9196 48.7682 14.8426C48.7682 17.7655 46.3903 20.1435 43.4673 20.1435Z" fill="url(#paint0_linear_38_77)"/>
<defs>
<linearGradient id="paint0_linear_38_77" x1="54.419" y1="30" x2="-4.65066e-07" y2="30" gradientUnits="userSpaceOnUse">
<stop stop-color="#00B2FF"/>
<stop offset="1" stop-color="#006AFF"/>
</linearGradient>
</defs>
</svg>
