<svg width="19" height="19" viewBox="0 0 19 19" fill="none" xmlns="http://www.w3.org/2000/svg">
<path fill-rule="evenodd" clip-rule="evenodd" d="M9.26753 17.9558C13.7461 17.9558 17.3766 14.3253 17.3766 9.84675C17.3766 5.36823 13.7461 1.73767 9.26753 1.73767C4.78901 1.73767 1.15845 5.36823 1.15845 9.84675C1.15845 11.3011 1.54131 12.666 2.21174 13.8463L1.15845 17.9558L5.39536 16.9734C6.54599 17.5999 7.86519 17.9558 9.26753 17.9558ZM9.26753 16.7083C13.057 16.7083 16.1291 13.6363 16.1291 9.84675C16.1291 6.05723 13.057 2.98522 9.26753 2.98522C5.47801 2.98522 2.406 6.05723 2.406 9.84675C2.406 11.3099 2.86396 12.6661 3.64437 13.7798L3.02977 16.0845L5.37513 15.4982C6.48111 16.2614 7.82213 16.7083 9.26753 16.7083Z" fill="#BFC8D0"/>
<path d="M16.2182 9.26754C16.2182 13.1063 13.1063 16.2182 9.26754 16.2182C7.80336 16.2182 6.44493 15.7655 5.32459 14.9923L2.94877 15.5863L3.57135 13.2516C2.78081 12.1235 2.31689 10.7497 2.31689 9.26754C2.31689 5.4288 5.4288 2.31689 9.26754 2.31689C13.1063 2.31689 16.2182 5.4288 16.2182 9.26754Z" fill="url(#paint0_linear_37_121)"/>
<path fill-rule="evenodd" clip-rule="evenodd" d="M9.26753 17.3766C13.7461 17.3766 17.3766 13.7461 17.3766 9.26753C17.3766 4.78901 13.7461 1.15845 9.26753 1.15845C4.78901 1.15845 1.15845 4.78901 1.15845 9.26753C1.15845 10.7219 1.54131 12.0868 2.21174 13.267L1.15845 17.3766L5.39536 16.3941C6.54599 17.0206 7.86519 17.3766 9.26753 17.3766ZM9.26753 16.1291C13.057 16.1291 16.1291 13.057 16.1291 9.26753C16.1291 5.47801 13.057 2.406 9.26753 2.406C5.47801 2.406 2.406 5.47801 2.406 9.26753C2.406 10.7307 2.86396 12.0869 3.64437 13.2006L3.02977 15.5053L5.37513 14.9189C6.48111 15.6821 7.82213 16.1291 9.26753 16.1291Z" fill="white"/>
<path d="M7.24023 5.50255C7.04743 5.1153 6.75166 5.14958 6.45287 5.14958C5.91888 5.14958 5.08624 5.7892 5.08624 6.9796C5.08624 7.95519 5.51614 9.02313 6.96475 10.6207C8.36277 12.1624 10.1997 12.96 11.7247 12.9328C13.2496 12.9057 13.5634 11.5934 13.5634 11.1502C13.5634 10.9538 13.4415 10.8558 13.3575 10.8291C12.8378 10.5797 11.8794 10.115 11.6613 10.0277C11.4432 9.94041 11.3293 10.0585 11.2586 10.1227C11.0608 10.3112 10.6688 10.8666 10.5345 10.9916C10.4003 11.1165 10.2002 11.0533 10.1169 11.0061C9.81047 10.8831 8.97957 10.5135 8.31726 9.87146C7.49816 9.07743 7.45009 8.80425 7.29577 8.56108C7.17231 8.36654 7.2629 8.24718 7.30811 8.19502C7.48459 7.99139 7.72827 7.677 7.83755 7.52077C7.94683 7.36454 7.86008 7.12734 7.80802 6.9796C7.58414 6.34423 7.39447 5.81235 7.24023 5.50255Z" fill="white"/>
<defs>
<linearGradient id="paint0_linear_37_121" x1="15.3493" y1="4.05455" x2="2.31689" y2="16.2182" gradientUnits="userSpaceOnUse">
<stop stop-color="#5BD066"/>
<stop offset="1" stop-color="#27B43E"/>
</linearGradient>
</defs>
</svg>
